<svg xmlns="http://www.w3.org/2000/svg">
    <symbol id="clock" width="34" height="34" viewBox="0 0 34 34" fill="none" xmlns="http://www.w3.org/2000/svg">
      <path d="M33.6663 6.53343L25.9997 0.100098L23.8497 2.6501L31.5163 9.08343L33.6663 6.53343ZM10.133 2.6501L7.99967 0.100098L0.333008 6.51676L2.48301 9.06676L10.133 2.6501ZM16.9997 3.66676C8.71634 3.66676 1.99967 10.3834 1.99967 18.6668C1.99967 26.9501 8.69967 33.6668 16.9997 33.6668C25.283 33.6668 31.9997 26.9501 31.9997 18.6668C31.9997 10.3834 25.283 3.66676 16.9997 3.66676ZM16.9997 30.3334C10.5497 30.3334 5.33301 25.1168 5.33301 18.6668C5.33301 12.2168 10.5497 7.0001 16.9997 7.0001C23.4497 7.0001 28.6663 12.2168 28.6663 18.6668C28.6663 25.1168 23.4497 30.3334 16.9997 30.3334ZM14.5663 21.2168L11.0163 17.6668L9.24967 19.4334L14.5497 24.7334L24.5497 14.7334L22.783 12.9668L14.5663 21.2168Z" fill="#006848"/>
      <path d="M33.6663 6.53343L25.9997 0.100098L23.8497 2.6501L31.5163 9.08343L33.6663 6.53343ZM10.133 2.6501L7.99967 0.100098L0.333008 6.51676L2.48301 9.06676L10.133 2.6501ZM16.9997 3.66676C8.71634 3.66676 1.99967 10.3834 1.99967 18.6668C1.99967 26.9501 8.69967 33.6668 16.9997 33.6668C25.283 33.6668 31.9997 26.9501 31.9997 18.6668C31.9997 10.3834 25.283 3.66676 16.9997 3.66676ZM16.9997 30.3334C10.5497 30.3334 5.33301 25.1168 5.33301 18.6668C5.33301 12.2168 10.5497 7.0001 16.9997 7.0001C23.4497 7.0001 28.6663 12.2168 28.6663 18.6668C28.6663 25.1168 23.4497 30.3334 16.9997 30.3334ZM14.5663 21.2168L11.0163 17.6668L9.24967 19.4334L14.5497 24.7334L24.5497 14.7334L22.783 12.9668L14.5663 21.2168Z" fill="url(#paint0_linear_412_515)" fill-opacity="0.6" style="mix-blend-mode:overlay"/>
      <defs>
      <linearGradient id="paint0_linear_412_515" x1="33.6663" y1="16.8834" x2="0.333008" y2="16.8834" gradientUnits="userSpaceOnUse">
      <stop stop-color="white"/>
      <stop offset="1" stop-color="white" stop-opacity="0"/>
      </linearGradient>
      </defs>
    </symbol>

    <symbol id="shield" width="40" height="40" viewBox="0 0 40 40" fill="none" xmlns="http://www.w3.org/2000/svg">
      <g clip-path="url(#clip0_412_521)">
      <path d="M20 1.66663L5 8.33329V18.3333C5 27.5833 11.4 36.2333 20 38.3333C28.6 36.2333 35 27.5833 35 18.3333V8.33329L20 1.66663ZM16.6667 28.3333L10 21.6666L12.35 19.3166L16.6667 23.6166L27.65 12.6333L30 15L16.6667 28.3333Z" fill="#006848"/>
      </g>
      <defs>
      <clipPath id="clip0_412_521">
      <rect width="40" height="40" fill="white"/>
      </clipPath>
      </defs>
    </symbol>

    <symbol id="like" width="32" height="32" viewBox="0 0 32 32" fill="none" xmlns="http://www.w3.org/2000/svg">
      <g clip-path="url(#clip0_412_526)">
      <path d="M1.33333 28H6.66667V12H1.33333V28ZM30.6667 13.3334C30.6667 11.8667 29.4667 10.6667 28 10.6667H19.5867L20.8533 4.57337L20.8933 4.14671C20.8933 3.60004 20.6667 3.09337 20.3067 2.73337L18.8933 1.33337L10.12 10.12C9.62667 10.6 9.33333 11.2667 9.33333 12V25.3334C9.33333 26.8 10.5333 28 12 28H24C25.1067 28 26.0533 27.3334 26.4533 26.3734L30.48 16.9734C30.6 16.6667 30.6667 16.3467 30.6667 16V13.3334Z" fill="#006848"/>
      </g>
      <defs>
      <clipPath id="clip0_412_526">
      <rect width="32" height="32" fill="white"/>
      </clipPath>
      </defs>
    </symbol>

    <symbol id="form" width="40" height="40" viewBox="0 0 40 40" fill="none" xmlns="http://www.w3.org/2000/svg">
      <g clip-path="url(#clip0_412_549)">
      <path d="M31.6667 3.99984H27.5058C26.9081 3.99984 26.3105 3.78772 25.6664 3.407C25.0685 3.0536 24.4996 2.59904 23.8874 2.10985C23.8281 2.06241 23.7683 2.01466 23.708 1.96663C22.6908 1.15573 21.4033 0.666504 20 0.666504C18.5967 0.666504 17.3092 1.15573 16.292 1.96663L16.8953 2.72344L16.292 1.96663C16.2317 2.01466 16.1719 2.06241 16.1126 2.10985C15.5003 2.59904 14.9315 3.0536 14.3336 3.407C13.6895 3.78772 13.0919 3.99984 12.4942 3.99984H8.33333C5.94772 3.99984 4 5.94755 4 8.33317V31.6665C4 34.0521 5.94772 35.9998 8.33333 35.9998H31.6667C34.0523 35.9998 36 34.0521 36 31.6665V8.33317C36 5.94755 34.0523 3.99984 31.6667 3.99984ZM20 5.99984C20.3644 5.99984 20.6667 6.30212 20.6667 6.6665C20.6667 7.03089 20.3644 7.33317 20 7.33317C19.6356 7.33317 19.3333 7.03089 19.3333 6.6665C19.3333 6.30212 19.6356 5.99984 20 5.99984ZM22.3333 26.6665C22.3333 27.0347 22.0349 27.3332 21.6667 27.3332H13.3333C12.9651 27.3332 12.6667 27.0347 12.6667 26.6665C12.6667 26.2983 12.9651 25.9998 13.3333 25.9998H21.6667C22.0349 25.9998 22.3333 26.2983 22.3333 26.6665ZM27.3333 19.9998C27.3333 20.368 27.0349 20.6665 26.6667 20.6665H13.3333C12.9651 20.6665 12.6667 20.368 12.6667 19.9998C12.6667 19.6316 12.9651 19.3332 13.3333 19.3332H26.6667C27.0349 19.3332 27.3333 19.6316 27.3333 19.9998ZM27.3333 13.3332C27.3333 13.7014 27.0349 13.9998 26.6667 13.9998H13.3333C12.9651 13.9998 12.6667 13.7014 12.6667 13.3332C12.6667 12.965 12.9651 12.6665 13.3333 12.6665H26.6667C27.0349 12.6665 27.3333 12.965 27.3333 13.3332Z" fill="#006848" stroke="white" stroke-width="2"/>
      </g>
      <defs>
      <clipPath id="clip0_412_549">
      <rect width="40" height="40" fill="white"/>
      </clipPath>
      </defs>
    </symbol>

    <symbol id="range" width="40" height="40" viewBox="0 0 40 40" fill="none" xmlns="http://www.w3.org/2000/svg">
      <rect x="4" y="12" width="32" height="4" rx="2" fill="#006848"/>
      <rect x="4" y="24" width="32" height="4" rx="2" fill="#006848"/>
      <circle cx="16" cy="26" r="7" fill="#006848" stroke="white" stroke-width="2"/>
      <circle cx="24" cy="14" r="7" fill="#006848" stroke="white" stroke-width="2"/>
    </symbol>

    <symbol id="message" width="40" height="40" viewBox="0 0 40 40" fill="none" xmlns="http://www.w3.org/2000/svg">
      <g clip-path="url(#clip0_412_557)">
      <path d="M33.333 3.3335H6.66634C4.83301 3.3335 3.34967 4.8335 3.34967 6.66683L3.33301 36.6668L9.99967 30.0002H33.333C35.1663 30.0002 36.6663 28.5002 36.6663 26.6668V6.66683C36.6663 4.8335 35.1663 3.3335 33.333 3.3335ZM14.9997 18.3335H11.6663V15.0002H14.9997V18.3335ZM21.6663 18.3335H18.333V15.0002H21.6663V18.3335ZM28.333 18.3335H24.9997V15.0002H28.333V18.3335Z" fill="#006848"/>
      </g>
      <defs>
      <clipPath id="clip0_412_557">
      <rect width="40" height="40" fill="white"/>
      </clipPath>
      </defs>
    </symbol>

    <symbol id="card" width="40" height="40" viewBox="0 0 40 40" fill="none" xmlns="http://www.w3.org/2000/svg">
      <g clip-path="url(#clip0_412_565)">
      <path d="M33.333 6.6665H6.66634C4.81634 6.6665 3.34967 8.14984 3.34967 9.99984L3.33301 29.9998C3.33301 31.8498 4.81634 33.3332 6.66634 33.3332H33.333C35.183 33.3332 36.6663 31.8498 36.6663 29.9998V9.99984C36.6663 8.14984 35.183 6.6665 33.333 6.6665ZM33.333 29.9998H6.66634V19.9998H33.333V29.9998ZM33.333 13.3332H6.66634V9.99984H33.333V13.3332Z" fill="#006848"/>
      </g>
      <defs>
      <clipPath id="clip0_412_565">
      <rect width="40" height="40" fill="white"/>
      </clipPath>
      </defs>
    </symbol>

    <svg id="arrow" xmlns="http://www.w3.org/2000/svg" width="24" height="24">
      <path d="M12 17.414 3.293 8.707l1.414-1.414L12 14.586l7.293-7.293 1.414 1.414L12 17.414z"/>
    </svg>


</svg>
